<svg width="192" height="40" viewBox="0 0 192 40" fill="none" xmlns="http://www.w3.org/2000/svg">
<path fill-rule="evenodd" clip-rule="evenodd" d="M18.507 4H18.5187C26.5866 4.00617 33.125 10.4991 33.125 18.5078C33.125 18.9302 33.1071 19.349 33.0708 19.7624C32.5046 26.324 27.5371 31.6383 21.1114 32.785C21.1059 32.7861 21.1004 32.7872 21.0945 32.7879C20.2817 32.9321 19.4446 33.0098 18.5908 33.0142H18.5809C18.0802 33.0109 17.5814 32.98 17.0931 32.9219C16.8139 32.8885 16.5625 33.0926 16.5372 33.3705C16.4684 34.1274 16.3945 34.9254 16.3568 35.293C16.3085 35.763 15.8572 36.0856 15.3931 35.9799C15.2511 35.9475 15.1018 35.9112 14.9455 35.8709C14.9455 35.8709 13.7374 35.5542 12.5885 35.0282C7.5924 32.7392 4.125 27.7227 4.125 21.9032C4.125 21.6493 4.14507 21.1554 4.14651 21.1199L4.14659 21.1179C4.49941 14.5738 9.22471 9.18608 15.4857 7.80112C15.6921 7.75571 15.8462 7.58391 15.8711 7.37542L16.18 4.78492C16.2232 4.42097 16.5145 4.13548 16.8816 4.09553C17.4159 4.03778 17.9583 4.00545 18.507 4ZM6.97936 20.2433C6.97936 24.6557 9.47249 28.4895 13.1368 30.4342C13.6126 30.6866 14.327 30.9467 14.9569 31.1537C15.295 31.2649 15.6387 30.9979 15.6123 30.6452L14.8668 20.5444C14.7665 19.1983 13.7187 18.1119 12.3682 17.9532L9.4509 17.6103C9.04282 17.5623 9.04282 16.9743 9.4509 16.9263L12.5863 16.558C13.8904 16.4048 14.9188 15.3841 15.0732 14.0899L15.5805 9.81337C15.6233 9.45305 15.2745 9.16828 14.9276 9.2827C10.3015 10.8082 6.97936 15.1386 6.97936 20.2433ZM17.163 31.7018C17.6344 31.7614 18.1256 31.7992 18.5996 31.7992C25.0278 31.7992 30.2392 26.6273 30.2395 20.2473C30.2395 13.868 25.0282 8.6961 18.5999 8.6961C18.1227 8.6961 17.652 8.72443 17.1898 8.77964C16.9149 8.81269 16.718 9.05896 16.7506 9.3321L17.293 13.8756C17.4529 15.2188 18.5513 16.2598 19.9105 16.3564L27.8902 16.9234C28.3192 16.9536 28.3199 17.5791 27.891 17.6103L20.1045 18.182C18.6984 18.2855 17.5817 19.3966 17.4807 20.7921L16.7272 31.173C16.7081 31.4363 16.8992 31.6684 17.163 31.7018Z" fill="white"/>
<path fill-rule="evenodd" clip-rule="evenodd" d="M43.125 13.5H48.1336C51.5354 13.5 53.2364 15.2021 53.2364 18.6058V21.3942C53.2364 24.7979 51.5354 26.5 48.1336 26.5H43.125V13.5ZM48.2657 24.4087C50.0424 24.4087 50.9306 23.5233 50.9306 21.7521V18.2479C50.9306 16.4767 50.0424 15.5913 48.2657 15.5913H45.4308V24.4087H48.2657Z" fill="white"/>
<path fill-rule="evenodd" clip-rule="evenodd" d="M81.3978 13.5H85.7257C87.7796 13.5 88.8064 14.5236 88.8064 16.5711V23.4289C88.8064 25.4764 87.7796 26.5 85.7257 26.5H81.3978C79.3442 26.5 78.317 25.4764 78.317 23.4289V16.5711C78.317 14.5236 79.3442 13.5 81.3978 13.5ZM85.6689 24.4087C86.2234 24.4087 86.5006 24.1387 86.5006 23.5984V16.4016C86.5006 15.8613 86.2234 15.5913 85.6689 15.5913H81.4546C80.9001 15.5913 80.6228 15.8613 80.6228 16.4016V23.5984C80.6228 24.1387 80.9001 24.4087 81.4546 24.4087H85.6689Z" fill="white"/>
<path d="M100.129 22.7696V13.5H102.434V26.5H99.9398L94.1374 17.2304V26.5H91.8315V13.5H94.3453L100.129 22.7696Z" fill="white"/>
<path d="M118.965 13.5V15.5913H112.502V19.2839H118.398V21.3753H112.502V26.5H110.196V13.5H118.965Z" fill="white"/>
<path d="M121.141 26.5V13.5H123.446V26.5H121.141Z" fill="white"/>
<path d="M134.956 22.7696V13.5H137.262V26.5H134.767L128.965 17.2304V26.5H126.659V13.5H129.173L134.956 22.7696Z" fill="white"/>
<path d="M161.127 22.7696V13.5H163.433V26.5H160.938L155.136 17.2304V26.5H152.83V13.5H155.344L161.127 22.7696Z" fill="white"/>
<path d="M187.125 13.5V15.5913H180.661V18.7187H186.558V20.8101H180.661V24.4087H187.125V26.5H178.356V13.5H187.125Z" fill="white"/>
<path d="M65.7338 13.5H63.245L60.1454 19.3972L57.0646 13.5H54.5759L58.9925 21.8276V26.5H61.3172V21.8276L65.7338 13.5Z" fill="white"/>
<path d="M168.771 23.5984V16.4016C168.771 15.8613 169.048 15.5913 169.603 15.5913H175.801V13.5H169.546C167.492 13.5 166.465 14.5236 166.465 16.5711V23.4289C166.465 25.4764 167.492 26.5 169.546 26.5H175.801V24.4087H169.603C169.048 24.4087 168.771 24.1387 168.771 23.5984Z" fill="white"/>
<path fill-rule="evenodd" clip-rule="evenodd" d="M143.261 13.5H146.852L151.003 26.5H148.629L147.74 23.6362H142.354L141.447 26.5H139.091L143.261 13.5ZM144.868 15.5913L142.997 21.5448H147.117L145.227 15.5913H144.868Z" fill="white"/>
<path d="M75.8609 23.4289V22.2044C75.8609 20.5465 75.1303 19.5667 73.6687 19.2651L69.832 18.5114C69.4037 18.4239 69.1893 18.1411 69.1893 17.6638V16.4016C69.1893 15.8613 69.4665 15.5913 70.021 15.5913H75.4829V13.5H69.9642C67.9107 13.5 66.8839 14.5236 66.8839 16.5711V17.6072C66.8839 19.2779 67.6145 20.2573 69.0761 20.5465L72.9128 21.3186C73.3411 21.4066 73.5551 21.6894 73.5551 22.1667V23.5984C73.5551 24.1387 73.2779 24.4087 72.7238 24.4087H66.8839V26.5H72.7802C74.8341 26.5 75.8609 25.4764 75.8609 23.4289Z" fill="white"/>
</svg>
