<svg width="190" height="40" viewBox="0 0 1024 1024" class="icon"  version="1.1" xmlns="http://www.w3.org/2000/svg"><g fill="none" fill-rule="evenodd"><path d="M618.666667 405.333333m-277.333334 0a277.333333 277.333333 0 1 0 554.666667 0 277.333333 277.333333 0 1 0-554.666667 0Z" fill="#D87B00" /><path d="M405.333333 618.666667m-277.333333 0a277.333333 277.333333 0 1 0 554.666667 0 277.333333 277.333333 0 1 0-554.666667 0Z" fill="#FFB300" /><path d="M373.333333 608m-53.333333 0a53.333333 53.333333 0 1 0 106.666667 0 53.333333 53.333333 0 1 0-106.666667 0Z" fill="#683529" /><path d="M416 458.666667m-32 0a32 32 0 1 0 64 0 32 32 0 1 0-64 0Z" fill="#683529" /><path d="M490.666667 725.333333m-42.666667 0a42.666667 42.666667 0 1 0 85.333333 0 42.666667 42.666667 0 1 0-85.333333 0Z" fill="#683529" /><path d="M245.333333 650.666667m-32 0a32 32 0 1 0 64 0 32 32 0 1 0-64 0Z" fill="#683529" /><path d="M544.021333 586.645333m-32 0a32 32 0 1 0 64 0 32 32 0 1 0-64 0Z" fill="#683529" /><path d="M341.333333 768m-21.333333 0a21.333333 21.333333 0 1 0 42.666667 0 21.333333 21.333333 0 1 0-42.666667 0Z" fill="#683529" /><path d="M554.666667 256m-42.666667 0a42.666667 42.666667 0 1 0 85.333333 0 42.666667 42.666667 0 1 0-85.333333 0Z" fill="#4C2114" /><path d="M671.978667 351.978667m-32 0a32 32 0 1 0 64 0 32 32 0 1 0-64 0Z" fill="#4C2114" /><path d="M693.312 224m-32 0a32 32 0 1 0 64 0 32 32 0 1 0-64 0Z" fill="#4C2114" /><path d="M768 448m-21.333333 0a21.333333 21.333333 0 1 0 42.666666 0 21.333333 21.333333 0 1 0-42.666666 0Z" fill="#4C2114" /></g></svg>