<svg width="147" height="18" viewBox="0 0 147 18" fill="none" xmlns="http://www.w3.org/2000/svg">
<path d="M40.7309 17.7219H42.607V10.0026H50.3602V8.19204H42.607V2.2552H51.1561V0.444673H40.7309V17.7219Z" fill="white"/>
<path d="M76.2134 14.1007L65.8166 0.711244L65.6176 0.451595H64.0755V17.7007H65.9588V3.80598L76.3555 17.434L76.5545 17.7007H78.0966V0.451595H76.2134V14.1007Z" fill="white"/>
<path d="M57.758 0.444673H55.8819V17.7219H57.758V0.444673Z" fill="white"/>
<path d="M123.259 2.82342C124.133 2.2971 125.092 2.03043 126.108 2.03043C126.876 2.03043 127.565 2.15675 128.155 2.40938C128.759 2.66201 129.292 2.99886 129.733 3.40587C130.18 3.83394 130.543 4.29008 130.806 4.76728C131.076 5.26552 131.261 5.74271 131.353 6.20587L131.467 6.73219H133.385L133.25 5.96727C133.144 5.34973 132.909 4.6971 132.568 4.02342C132.227 3.37079 131.758 2.73921 131.168 2.15675C130.564 1.57429 129.839 1.10412 129.015 0.753241C128.162 0.395347 127.189 0.212891 126.108 0.212891C124.595 0.212891 123.237 0.598855 122.072 1.34973C120.928 2.09359 120.018 3.15324 119.378 4.48657C118.753 5.80587 118.44 7.34271 118.44 9.05499C118.44 10.7603 118.76 12.2971 119.378 13.6234C120.018 14.9638 120.928 16.0164 122.072 16.7603C123.23 17.5182 124.588 17.8971 126.101 17.8971C127.181 17.8971 128.155 17.7146 129.008 17.3567C129.825 17.0129 130.55 16.5357 131.161 15.9462C131.737 15.3778 132.213 14.7532 132.561 14.0936C132.909 13.4199 133.137 12.7673 133.243 12.1638L133.378 11.3989H131.46L131.346 11.9392C131.261 12.3953 131.076 12.8796 130.806 13.3848C130.536 13.876 130.173 14.3322 129.733 14.7462C129.306 15.1462 128.773 15.476 128.169 15.7357C127.565 15.9813 126.869 16.1076 126.115 16.1076C125.092 16.1076 124.133 15.848 123.266 15.3287C122.392 14.8094 121.681 14.0164 121.148 12.9918C120.608 11.9462 120.331 10.6269 120.331 9.06201C120.331 7.52517 120.608 6.21289 121.148 5.16728C121.681 4.1357 122.399 3.34973 123.259 2.82342Z" fill="white"/>
<path d="M139.461 15.8973V9.9745H146.809V8.17099H139.461V2.2552H146.809V0.444673H137.578V17.6938H146.88V15.8973H139.461Z" fill="white"/>
<path d="M112.457 14.2271L102.024 0.676251L101.904 0.444673H100.305V17.6938H102.181V3.92537L112.67 17.5394L112.791 17.6938H114.319V0.444673H112.457V14.2271Z" fill="white"/>
<path d="M90.0501 0.444673H88.38L82.0908 17.0412L81.8989 17.6938H83.8461L85.8857 12.3113H92.5373L94.5769 17.6938H96.5738L90.1567 0.746427L90.0501 0.444673ZM91.8551 10.5078H86.5679L89.2115 3.53239L91.8551 10.5078Z" fill="white"/>
<path d="M30.0146 0.488307L25.8218 6.81813L21.6361 0.488307H14.3022L10.1875 6.29181L5.87388 0.488307H0.920665L7.28807 8.82515L0.785645 17.555H5.71043L9.87483 11.6813L14.2382 17.555H19.1985L12.7529 9.1269L17.9549 2.13743L23.7111 10.8673V17.555H27.9182V10.8883L34.7972 0.488307H30.0146Z" fill="white"/>
</svg>
